<?xml version="1.0" encoding="UTF-8"?>
<svg width="89px" height="89px" viewBox="0 0 89 89" version="1.1" xmlns="http://www.w3.org/2000/svg" xmlns:xlink="http://www.w3.org/1999/xlink">
    <!-- Generator: Sketch 58 (84663) - https://sketch.com -->
    <title>Custom Preset 17</title>
    <desc>Created with Sketch.</desc>
    <g id="Custom-Preset-17" stroke="none" stroke-width="1" fill="none" fill-rule="evenodd">
        <g id="Git_icon" transform="translate(0.000000, 1.000000)" fill="#F05133" fill-rule="nonzero">
            <path d="M86.340097,40.0801206 L47.9188364,1.65993916 C45.7065901,-0.553313055 42.1181541,-0.553313055 39.9039923,1.65993916 L31.9264979,9.63952267 L42.0463279,19.759573 C44.3983959,18.9646793 47.0952295,19.49812 48.969414,21.3733029 C50.8550907,23.2599783 51.3837314,25.9798556 50.5687436,28.3405941 L60.3236967,38.0948017 C62.6843838,37.280754 65.4061172,37.8074908 67.2908362,39.6951239 C69.9244628,42.3288078 69.9244628,46.5963335 67.2908362,49.2319329 C64.6552942,51.8665745 60.3878614,51.8665745 57.7513617,49.2319329 C55.7708745,47.2494871 55.2805411,44.3380692 56.2851499,41.8978414 L47.1871671,32.8006182 L47.1871671,56.7403264 C47.8288143,57.0582839 48.4350272,57.4815887 48.969414,58.0159871 C51.6030406,60.6496711 51.6030406,64.9171968 48.969414,67.5537538 C46.3357874,70.1864801 42.0654815,70.1864801 39.4337703,67.5537538 C36.8001437,64.9162391 36.8001437,60.6487134 39.4337703,58.0159871 C40.0849943,57.3657066 40.8386904,56.8734471 41.6431436,56.5439972 L41.6431436,32.3811441 C40.8386904,32.0516942 40.0869097,31.5642233 39.4337703,30.9091542 C37.4389178,28.9152161 36.9591189,25.9865595 37.9819237,23.5367546 L28.0057461,13.5584444 L1.65990303,39.9019878 C-0.553301012,42.1171554 -0.553301012,45.7056695 1.65990303,47.9189217 L40.0830789,86.3400608 C42.2953253,88.5533131 45.8828036,88.5533131 48.097923,86.3400608 L86.340097,48.0970545 C88.553301,45.8838023 88.553301,42.2933728 86.340097,40.0801206 Z" id="Path"></path>
        </g>
    </g>
</svg>