<?xml version="1.0" encoding="UTF-8"?>
<svg width="89px" height="89px" viewBox="0 0 89 89" version="1.1" xmlns="http://www.w3.org/2000/svg" xmlns:xlink="http://www.w3.org/1999/xlink">
    <!-- Generator: Sketch 58 (84663) - https://sketch.com -->
    <title>Custom Preset 17</title>
    <desc>Created with Sketch.</desc>
    <g id="Custom-Preset-17" stroke="none" stroke-width="1" fill="none" fill-rule="evenodd">
        <g id="Gulp.js_Logo" transform="translate(24.000000, 0.000000)" fill="#DA4648" fill-rule="nonzero">
            <path d="M19.8266667,70.310593 C14.6372414,70.310593 10.6273563,69.530689 8.69908046,69.0658745 C7.38045977,68.7480251 6.3216092,68.419136 5.51724138,68.0812773 L8.08896552,72.4771208 L9.09494253,86.2120329 C9.09494253,87.7518316 13.9841379,89 20.0151724,89 C26.0462069,89 30.9354023,87.7518316 30.9354023,86.2120329 L31.731954,72.3276257 L34.1652874,68.0683977 C33.3574713,68.4108563 32.2891954,68.7441152 30.954023,69.0658745 C29.0257471,69.530689 25.0158621,70.310593 19.8266667,70.310593 Z M34.2487356,25.6166428 C30.44,26.148845 25.3850575,26.4420853 20.0151724,26.4420853 C14.6452874,26.4420853 9.59034483,26.148845 5.7816092,25.6166428 C3.89494253,25.3530716 2.40229885,25.0421219 1.34505747,24.6929936 C1.09287356,24.6095063 0.665517241,24.4671411 0.254252874,24.2403687 L2.61402299,45.9684344 C2.72367816,45.5942369 2.84574713,45.2204993 2.98114943,44.8481417 C3.25816092,44.0850272 3.57862069,43.338932 3.94229885,42.6100863 C4.3062069,41.8814706 4.70229885,41.1926436 5.13057471,40.5438352 C5.55862069,39.8952568 6.01448276,39.2979667 6.49747126,38.7521949 C6.98068966,38.2066531 7.47632184,37.7374688 7.98528736,37.3441819 C8.49402299,36.951355 9.00758621,36.6440852 9.52597701,36.4228326 C10.0445977,36.2015799 10.5581609,36.0907236 11.0668966,36.0907236 C11.6528736,36.0907236 12.2197701,36.2510283 12.7673563,36.5716376 C13.3147126,36.8920169 13.8264368,37.4111096 14.3032184,38.1284557 C14.4126437,38.2887604 14.482069,38.450905 14.5108046,38.6148895 C14.54,38.779104 14.5542529,38.9336589 14.5542529,39.078554 C14.5542529,39.4219326 14.4721839,39.6930936 14.308046,39.891347 C14.143908,40.0898303 13.9489655,40.188957 13.7236782,40.188957 C13.5172414,40.188957 13.3257471,40.0801707 13.1487356,39.8628279 C12.9714943,39.6452552 12.7735632,39.3343055 12.5544828,38.929749 C12.3482759,38.5633712 12.1213793,38.2984201 11.8735632,38.1342055 C11.6255172,37.970221 11.3567816,37.8881137 11.0668966,37.8881137 C10.616092,37.8881137 10.1347126,38.0750975 9.62275862,38.449065 C9.11057471,38.8228026 8.60344828,39.3170561 8.10137931,39.9313656 C7.59885057,40.5459051 7.11747126,41.2478417 6.65701149,42.0378654 C6.19655172,42.8276591 5.78896552,43.6365421 5.43471264,44.4645145 C5.08045977,45.2929469 4.79908046,46.1096497 4.58965517,46.9146228 C4.38022989,47.719596 4.27563218,48.4426919 4.27563218,49.0836805 C4.27563218,49.2975734 4.29034483,49.5172161 4.31908046,49.7419186 C4.34827586,49.9673111 4.40275862,50.1713143 4.48344828,50.3546182 C4.56367816,50.5379221 4.67333333,50.6883371 4.81172414,50.8063231 C4.95034483,50.9249992 5.12574713,50.9838772 5.33816092,50.9838772 C5.57655172,50.9838772 5.84689655,50.9038399 6.14988506,50.7435352 C6.45241379,50.5836905 6.76643678,50.3734776 7.09149425,50.1142762 C7.41678161,49.8546148 7.74367816,49.5609146 8.07218391,49.2324856 C8.40091954,48.9045165 8.70666667,48.5726376 8.98988506,48.2366188 C9.27310345,47.90106 9.52436782,47.5783807 9.74321839,47.269501 C9.96229885,46.9603913 10.1264368,46.6913003 10.236092,46.4622279 L11.1344828,43.7720076 C11.243908,43.4822173 11.3871264,43.2761441 11.5643678,43.1540182 C11.7413793,43.0318923 11.9234483,42.9707143 12.1103448,42.9707143 C12.2002299,42.9707143 12.2903448,42.9861238 12.3806897,43.0164828 C12.4710345,43.0470718 12.5512644,43.0949102 12.6222989,43.159538 C12.6931034,43.2246258 12.7494253,43.3083431 12.7912644,43.4116096 C12.8331034,43.5144162 12.854023,43.6347022 12.854023,43.7720076 C12.854023,44.1383854 12.8218391,44.4815339 12.7574713,44.8023733 C12.6931034,45.1232126 12.6110345,45.4357721 12.5110345,45.741202 C12.4112644,46.0461718 12.3,46.3534416 12.1777011,46.6625512 C12.0554023,46.9716609 11.936092,47.2941102 11.8204598,47.630129 C11.7947126,47.6683077 11.748046,47.7881337 11.6802299,47.990297 C11.6126437,48.1929202 11.5308046,48.4468318 11.434023,48.7518016 C11.3374713,49.0572314 11.2326437,49.39854 11.12,49.7764175 C11.0071264,50.1542949 10.8914943,50.539532 10.7724138,50.9325889 C10.6531034,51.3256458 10.5388506,51.711113 10.4294253,52.0889904 C10.3197701,52.4666378 10.2213793,52.8081764 10.1347126,53.1136062 C10.0478161,53.418576 9.9754023,53.6740975 9.91724138,53.8804007 C9.85931034,54.0864738 9.82390805,54.2083697 9.81103448,54.2470084 C9.77885057,54.3686744 9.72712644,54.5043699 9.65655172,54.6529449 C9.58574713,54.8017499 9.50206897,54.9431952 9.40528736,55.0765908 C9.30873563,55.2099863 9.20252874,55.3210726 9.08643678,55.4084697 C8.97057471,55.4960968 8.85149425,55.5402553 8.72896552,55.5402553 C8.52298851,55.5402553 8.37310345,55.4714876 8.28,55.3344122 C8.18643678,55.1968768 8.14,54.9450352 8.14,54.5788874 L8.14,54.4185827 C8.14,54.3649945 8.14298851,54.3074964 8.14942529,54.2470084 C8.15563218,54.1246525 8.20413793,53.8955801 8.29448276,53.5595613 C8.3845977,53.2240025 8.49241379,52.8445152 8.61816092,52.4208693 C8.74367816,51.9972234 8.87908046,51.5583981 9.02390805,51.1041632 C9.16850575,50.6501583 9.29908046,50.2439919 9.41517241,49.8852038 C9.07333333,50.2669911 8.70344828,50.6464785 8.30413793,51.0243559 C7.9045977,51.4020033 7.49563218,51.7417019 7.07724138,52.0429919 C6.6583908,52.3445118 6.23655172,52.5906036 5.81172414,52.7814973 C5.38666667,52.9721609 4.97770115,53.0678377 4.58482759,53.0678377 C4.13402299,53.0678377 3.74597701,52.9684811 3.42045977,52.7699977 C3.36183908,52.7338889 3.30643678,52.6936402 3.25126437,52.6536215 L4.56436782,66.4274024 C4.9062069,67.2845838 11.3416092,69.3906236 19.8266667,69.3906236 C28.3156322,69.3906236 34.7535632,67.2825139 35.0894253,66.4260225 L36.9756322,50.0501083 C36.8195402,50.1933936 36.6675862,50.3334589 36.5222989,50.4691544 C35.9811494,50.9726076 35.4705747,51.4056831 34.9908046,51.7681511 C34.5112644,52.130619 34.0425287,52.4114396 33.5852874,52.609463 C33.1278161,52.8081764 32.6383908,52.9073031 32.1167816,52.9073031 C31.6273563,52.9073031 31.2487356,52.8003567 30.9816092,52.5866938 C30.7144828,52.3732609 30.5806897,52.0795607 30.5806897,51.7053632 L30.5806897,51.619576 C30.5806897,51.5928969 30.583908,51.560238 30.5905747,51.5220593 C30.616092,51.2934469 30.7163218,51.0296457 30.8901149,50.7322656 C31.063908,50.4344255 31.2731034,50.1255458 31.5177011,49.8051665 C31.7625287,49.4845572 32.0232184,49.160038 32.3002299,48.8318389 C32.5772414,48.5038699 32.8333333,48.1929202 33.0685057,47.89876 C33.3034483,47.6055198 33.4981609,47.3364288 33.6526437,47.0919469 C33.8075862,46.8476951 33.8848276,46.6494417 33.8848276,46.4967268 C33.8848276,46.4051898 33.8524138,46.3327422 33.7882759,46.278924 C33.7236782,46.2260258 33.6172414,46.1988867 33.4694253,46.1988867 C33.2117241,46.1988867 32.945977,46.2658145 32.6726437,46.39921 C32.3986207,46.5326056 32.1278161,46.7124596 31.8606897,46.9373921 C31.5935632,47.1625546 31.3326437,47.420376 31.0781609,47.7101663 C30.8241379,48.0001867 30.5857471,48.3017066 30.3634483,48.6142662 C30.1411494,48.9275157 29.9386207,49.2423753 29.7549425,49.5590747 C29.5712644,49.8757741 29.4151724,50.1676344 29.2862069,50.4344255 C29.2475862,50.5186027 29.1928736,50.6370488 29.1218391,50.7893037 C29.0510345,50.9420186 28.9737931,51.1140529 28.8901149,51.3047165 C28.8062069,51.4956101 28.7177011,51.6922536 28.6243678,51.8939569 C28.5310345,52.0965801 28.4457471,52.2874738 28.3685057,52.4666378 C28.2912644,52.6460318 28.222069,52.8058765 28.1611494,52.9473218 C28.0995402,53.0883071 28.056092,53.1858238 28.0303448,53.239412 C27.9981609,53.3079497 27.9450575,53.4374354 27.8710345,53.6283291 C27.7970115,53.8192227 27.7114943,54.0425452 27.6151724,54.2980667 C27.5186207,54.5535882 27.4170115,54.8226792 27.3105747,55.1053398 C27.2048276,55.3873104 27.1045977,55.6547915 27.0112644,55.9066331 C26.9177011,56.1582447 26.8356322,56.3797273 26.7650575,56.570621 C26.6942529,56.7610546 26.6487356,56.8910003 26.6294253,56.959768 C26.5652874,57.1582514 26.4894253,57.3447752 26.4027586,57.5209493 C26.3156322,57.6962035 26.216092,57.8507583 26.1032184,57.9846138 C25.9905747,58.1180094 25.8618391,58.2247258 25.7167816,58.3047632 C25.5717241,58.3852605 25.4091954,58.4250492 25.2291954,58.4250492 C24.9970115,58.4250492 24.8057471,58.369391 24.654023,58.2589947 C24.5029885,58.1483684 24.4271264,57.9363155 24.4271264,57.6237559 C24.4271264,57.471041 24.4464368,57.3146462 24.4850575,57.1545715 C24.5236782,56.9942669 24.5721839,56.8355721 24.6301149,56.6794074 C24.688046,56.5225526 24.7478161,56.3702977 24.8089655,56.2214926 C24.8698851,56.0724576 24.9264368,55.9296323 24.9777011,55.7920969 C25.3257471,55.0289824 25.68,54.2640279 26.0404598,53.4967734 C26.4009195,52.729979 26.7471264,51.9707743 27.0790805,51.2189294 C27.148046,51.0620746 27.2114943,50.9084397 27.2788506,50.7525049 C27.2586207,50.7722843 27.2388506,50.7929836 27.2190805,50.8123029 C26.8002299,51.2170894 26.3834483,51.5735775 25.968046,51.8826872 C25.5524138,52.1917969 25.1402299,52.4378887 24.7317241,52.6211926 C24.3225287,52.8040365 23.9248276,52.8958035 23.5381609,52.8958035 C23.2742529,52.8958035 23.0537931,52.8539449 22.8767816,52.7699977 C22.6995402,52.6858205 22.5581609,52.5712843 22.4517241,52.4266191 C22.3452874,52.2817239 22.2694253,52.1099197 22.2243678,51.9114363 C22.2091954,51.8435885 22.1997701,51.7727509 22.1898851,51.7021433 C22.0767816,51.7902303 21.9627586,51.8760175 21.8478161,51.9574348 C21.4485057,52.2394054 21.0556322,52.4666378 20.6691954,52.6382121 C20.2829885,52.8100163 19.9349425,52.8958035 19.6262069,52.8958035 C19.3167816,52.8958035 19.0657471,52.7927669 18.8721839,52.5866938 C18.6790805,52.3808506 18.5827586,52.0296523 18.5827586,51.5337889 C18.5827586,51.1823606 18.6342529,50.7741242 18.7370115,50.3088497 C18.5696552,50.6064598 18.3604598,50.9079797 18.1094253,51.2129496 C17.857931,51.5183794 17.5714943,51.7969001 17.2496552,52.0489717 C16.9271264,52.3005833 16.5666667,52.5048165 16.1675862,52.6612113 C15.768046,52.8176061 15.3333333,52.8958035 14.8634483,52.8958035 C14.6508046,52.8958035 14.4464368,52.8691244 14.2498851,52.8157661 C14.0533333,52.7621779 13.8811494,52.670641 13.7331034,52.5409253 C13.5848276,52.4114396 13.465977,52.2375654 13.3756322,52.0202227 C13.2855172,51.8028799 13.2404598,51.529649 13.2404598,51.2016799 C13.2404598,51.1940902 13.2533333,51.0777141 13.2790805,50.8523216 C13.3048276,50.6271591 13.3868966,50.2722809 13.5255172,49.7876871 C13.663908,49.3033232 13.8781609,48.6754442 14.1675862,47.9045098 C14.4577011,47.1338055 14.8666667,46.1988867 15.3947126,45.1002133 C15.5298851,44.809963 15.6862069,44.6020499 15.8629885,44.4762441 C16.0404598,44.3502083 16.2317241,44.2871904 16.4377011,44.2871904 C16.528046,44.2871904 16.6213793,44.30076 16.717931,44.3272091 C16.8149425,44.3541182 16.9048276,44.3959768 16.9887356,44.4532449 C17.0721839,44.510513 17.14,44.5831906 17.1917241,44.6708176 C17.2427586,44.7584447 17.2689655,44.8594114 17.2689655,44.9739475 C17.2689655,45.050305 17.2590805,45.1232126 17.2397701,45.1912903 C17.2073563,45.3216959 17.1381609,45.4909703 17.0324138,45.7007233 C16.925977,45.9109363 16.8018391,46.1512783 16.66,46.4222093 C16.5186207,46.6931402 16.3687356,46.9850005 16.2110345,47.2982501 C16.0531034,47.6108096 15.9066667,47.9350988 15.7714943,48.2711176 C15.6363218,48.6071364 15.5202299,48.9484451 15.4236782,49.2957335 C15.3271264,49.6430219 15.2721839,49.9808806 15.2595402,50.3088497 C15.2595402,50.4461551 15.2914943,50.5719609 15.356092,50.6864971 C15.4204598,50.8010333 15.5268966,50.8580714 15.6749425,50.8580714 C16.0933333,50.8580714 16.4926437,50.720536 16.8728736,50.4461551 C17.2526437,50.1713143 17.6034483,49.8297757 17.9257471,49.4215393 C18.2478161,49.0133029 18.5390805,48.5742475 18.8,48.1048332 C19.0609195,47.6354188 19.2781609,47.2064831 19.451954,46.8171061 C19.5744828,46.5579047 19.6822989,46.278924 19.7756322,45.9815439 C19.8689655,45.6837039 19.9705747,45.409323 20.08,45.1572514 C20.1896552,44.9051798 20.3149425,44.6954268 20.4567816,44.5275324 C20.5981609,44.359868 20.7756322,44.2756908 20.9878161,44.2756908 C21.22,44.2756908 21.4032184,44.3635479 21.5388506,44.539032 C21.674023,44.7147462 21.7413793,44.9244992 21.7413793,45.168521 C21.7413793,45.3058265 21.6981609,45.4951102 21.6110345,45.7354522 C21.523908,45.9757941 21.4144828,46.250635 21.2825287,46.5597447 C21.1503448,46.8688544 21.0071264,47.1988934 20.8528736,47.5496317 C20.6983908,47.90106 20.5547126,48.2575481 20.4232184,48.620246 C20.2905747,48.9827139 20.1816092,49.3375921 20.0944828,49.6848805 C20.0073563,50.0319389 19.9641379,50.3546182 19.9641379,50.6519983 C19.9641379,50.9268391 20.1057471,51.0643745 20.3889655,51.0643745 C20.5887356,51.0643745 20.8365517,50.9956068 21.1328736,50.8580714 C21.4291954,50.720536 21.74,50.5280324 22.0650575,50.2798707 C22.1462069,50.2180027 22.228046,50.1533749 22.3091954,50.0855271 C22.4,49.7108696 22.5064368,49.3645012 22.6303448,49.0496417 C22.8556322,48.4539615 23.0843678,47.8628812 23.3163218,47.2752508 C23.548046,46.6876204 23.7604598,46.1494384 23.954023,45.6609346 L26.8809195,38.2772608 C26.9967816,37.9796507 27.1531034,37.7696677 27.3491954,37.6475417 C27.545977,37.5256458 27.743908,37.4644679 27.9436782,37.4644679 C28.1429885,37.4644679 28.3248276,37.5293257 28.4891954,37.6590414 C28.6535632,37.788987 28.7358621,37.99874 28.7358621,38.2887604 C28.7358621,38.4260658 28.7082759,38.571191 28.6535632,38.7236759 C28.5988506,38.8763908 28.5296552,39.0403753 28.4457471,39.2158595 C28.2850575,39.5748775 28.0933333,40.0134729 27.8710345,40.5323356 C27.6487356,41.0514283 27.4103448,41.6162895 27.156092,42.2266891 C26.9016092,42.8373188 26.6406897,43.4725576 26.3735632,44.1326356 C26.1064368,44.7929436 25.8455172,45.4357721 25.5910345,46.0615813 C25.3370115,46.6876204 25.0983908,47.2805406 24.876092,47.8417219 C24.654023,48.4026732 24.4627586,48.889337 24.3013793,49.3012533 C24.2305747,49.4767374 24.1613793,49.6812006 24.094023,49.9139529 C24.0262069,50.1464751 23.9926437,50.3546182 23.9926437,50.5379221 C23.9926437,50.6519983 24.011954,50.7435352 24.0505747,50.8123029 C24.0891954,50.8810706 24.1632184,50.9155695 24.2726437,50.9155695 C24.4078161,50.9155695 24.5767816,50.8679611 24.7797701,50.7722843 C24.9825287,50.6770674 25.2013793,50.5508016 25.4365517,50.3944069 C25.671954,50.2382421 25.9165517,50.058848 26.1705747,49.8564548 C26.4252874,49.6542915 26.677931,49.4445385 26.9289655,49.2269658 C27.1804598,49.009163 27.4202299,48.7918203 27.6487356,48.5742475 C27.8772414,48.3569048 28.082069,48.1565814 28.2625287,47.9732776 C28.3048276,47.929349 28.3554023,47.8983001 28.4110345,47.8750708 C28.5197701,47.5500917 28.6190805,47.2317823 28.7066667,46.9203727 C28.7581609,46.7828372 28.8291954,46.5884937 28.9193103,46.3364221 C29.0091954,46.0843505 29.1124138,45.8364188 29.2282759,45.5921669 C29.3441379,45.3481451 29.4749425,45.1360921 29.6193103,44.9569281 C29.7643678,44.7777641 29.9206897,44.6878371 30.088046,44.6878371 C30.3457471,44.6878371 30.5326437,44.7471751 30.6485057,44.8651612 C30.7643678,44.9838372 30.8222989,45.1572514 30.8222989,45.3863238 C30.8222989,45.4320923 30.8158621,45.5045398 30.8029885,45.6036665 C30.7898851,45.7030232 30.7742529,45.8081297 30.7549425,45.918756 C30.7356322,46.0291524 30.7144828,46.1342589 30.691954,46.2336155 C30.6691954,46.3327422 30.6485057,46.4051898 30.6291954,46.4509583 C30.8671264,46.191297 31.1248276,45.9339355 31.4018391,45.6784141 C31.6788506,45.4226626 31.9652874,45.1912903 32.2616092,44.9856771 C32.5581609,44.779374 32.8606897,44.6119396 33.1701149,44.4815339 C33.4788506,44.3522783 33.7882759,44.2871904 34.0972414,44.2871904 C34.3096552,44.2871904 34.5206897,44.3177794 34.7298851,44.3789574 C34.9390805,44.4399053 35.1262069,44.5296023 35.2901149,44.6478184 C35.4544828,44.7664945 35.5882759,44.9150695 35.6910345,45.0944635 C35.794023,45.2736275 35.8455172,45.4815406 35.8455172,45.7182027 C35.8455172,46.0314523 35.7668966,46.3651712 35.6089655,46.7200493 C35.4512644,47.0749275 35.2533333,47.4316456 35.0149425,47.7899737 C34.7765517,48.1489917 34.5188506,48.4978901 34.2422989,48.8375887 C33.9652874,49.1772874 33.7062069,49.4861671 33.4645977,49.7646878 C33.2229885,50.0436685 33.02,50.2798707 32.8556322,50.4744442 C32.691954,50.6694777 32.605977,50.8010333 32.5997701,50.869801 C32.5997701,50.961338 32.6289655,51.0356255 32.6868966,51.0931236 C32.7448276,51.1501617 32.8413793,51.1789107 32.9765517,51.1789107 C33.085977,51.1789107 33.2473563,51.1177327 33.4595402,50.9956068 C33.671954,50.8734809 33.9701149,50.6618879 34.3531034,50.360368 C34.736092,50.058848 35.2227586,49.6542915 35.811954,49.1466984 C36.216092,48.79895 36.6891954,48.3842739 37.2222989,47.9125596 L39.7772414,24.2396787 C39.3657471,24.4669111 38.9377011,24.6095063 38.6852874,24.6929936 C37.6282759,25.0421219 36.1356322,25.3530716 34.2487356,25.6166428 Z M20,20 C8.95436736,20 0,21.2356064 0,22.759908 C0,24.2842096 8.95436736,25.519816 20,25.519816 C31.0456326,25.519816 40,24.2842096 40,22.759908 C40,21.2356064 31.0456326,20 20,20 Z M27.9857471,23.5664911 C27.9857471,23.9241292 26.9216092,24.2141495 25.6087356,24.2141495 C24.296092,24.2141495 23.231954,23.9241292 23.231954,23.5664911 C23.231954,23.208623 24.296092,22.9186027 25.6087356,22.9186027 C26.9216092,22.9186027 27.9857471,23.208623 27.9857471,23.5664911 Z" id="Cup"></path>
            <path d="M24.0175161,22.5310463 C24.0059672,22.5495452 24,22.5684347 24,22.5876298 C24,22.8155424 24.8395916,23 25.8749451,23 C26.910524,23 27.7498902,22.8155424 27.7498902,22.5876298 L30.1988303,12.6115294 L39.9380576,2.28082653 C39.9412376,2.2776747 39.9443135,2.27441297 39.9472835,2.27104032 C40.153408,2.03679049 39.7350765,1.31186083 39.0410112,0.690136893 C38.3469458,0.0684129531 37.5974634,-0.1420724 37.3645314,0.0946670401 C37.3627902,0.096437567 37.3610921,0.0982331056 37.3594364,0.100053454 L26.9681938,11.0856237 L24.0175161,22.5310463 Z" id="Straw"></path>
        </g>
    </g>
</svg>