<?xml version="1.0" encoding="UTF-8"?>
<svg width="89px" height="89px" viewBox="0 0 89 89" version="1.1" xmlns="http://www.w3.org/2000/svg" xmlns:xlink="http://www.w3.org/1999/xlink">
    <!-- Generator: Sketch 58 (84663) - https://sketch.com -->
    <title>Custom Preset 17</title>
    <desc>Created with Sketch.</desc>
    <g id="Custom-Preset-17" stroke="none" stroke-width="1" fill="none" fill-rule="evenodd">
        <g id="html-logo" transform="translate(5.000000, 0.000000)" fill-rule="nonzero">
            <polygon id="Path" fill="#FF5722" points="0 0 7.10357143 80.1 39 89 70.8852857 80.1055625 78 0"></polygon>
            <polygon id="Path" fill="#FAFAFA" points="62.1296823 26.8820236 38.5027895 26.8820236 24.6948651 26.8820236 25.5874986 37.0103979 38.5027895 37.0103979 61.2370488 37.0103979 58.5535694 67.3787243 38.5027895 72.9944011 38.4860526 73 18.4464306 67.3787243 17.0461118 51.4947011 26.8650803 51.4947011 27.5959239 59.7362527 38.4916316 62.7092581 38.5027895 62.7036593 38.5027895 62.7036593 49.409655 59.7306539 50.5477627 46.9036193 38.5027895 46.9036193 38.5027895 46.9036193 16.6444267 46.9036193 14 17 38.5027895 17 63 17"></polygon>
        </g>
    </g>
</svg>