<?xml version="1.0" encoding="UTF-8"?>
<svg width="89px" height="89px" viewBox="0 0 89 89" version="1.1" xmlns="http://www.w3.org/2000/svg" xmlns:xlink="http://www.w3.org/1999/xlink">
    <!-- Generator: Sketch 62 (91390) - https://sketch.com -->
    <title>Custom Preset 17</title>
    <desc>Created with Sketch.</desc>
    <g id="Custom-Preset-17" stroke="none" stroke-width="1" fill="none" fill-rule="evenodd">
        <g id="jquery-icon" transform="translate(1.000000, 3.000000)" fill="#0868AC" fill-rule="nonzero">
            <path d="M5.58763045,19.7133111 C-2.19906178,30.8029001 -1.23604331,45.2275399 4.71816235,57.041903 C4.85573641,57.3252734 5.00706789,57.6031943 5.1528964,57.8811152 L5.42804453,58.4124345 C5.48307416,58.5159737 5.54360675,58.6167881 5.60138786,58.7176026 C5.70319267,58.9083326 5.80774896,59.0827144 5.91230525,59.267995 L6.48186189,60.232544 L6.80653669,60.7611386 L7.46689222,61.7829067 L7.74754332,62.2134116 C8.05846071,62.6711637 8.37488107,63.1289158 8.70230735,63.575769 L8.88940808,63.8264427 C9.17303527,64.2124804 9.46289523,64.5939895 9.75887619,64.9708229 L10.089054,65.3849796 L10.8924865,66.3658769 L11.2006524,66.7309886 C11.5665994,67.1587689 11.9435524,67.5838244 12.3205053,67.997981 C12.3590261,68.0388517 12.375535,68.0524753 12.3865409,68.0688236 C12.7603432,68.4703245 13.1400887,68.8663592 13.5256542,69.2567992 L13.8916012,69.621911 L14.79959,70.5047185 L15.17104,70.8589315 C15.579666,71.2405144 15.9952072,71.6147693 16.4174611,71.9815139 L17.7821958,73.1258941 L18.2499476,73.4964553 L19.1937058,74.2266789 L19.6972268,74.6081389 L20.7565472,75.3601602 L21.2518138,75.706199 C21.590246,75.9377997 21.9341812,76.1585016 22.2808678,76.3792035 L22.7266078,76.6734727 C23.2576992,77.007356 23.7943109,77.3325495 24.3362244,77.6489206 L24.7819644,77.9213921 L25.9926162,78.5916719 C26.2127347,78.7088346 26.4383562,78.8205479 26.6612262,78.9322612 L27.5251913,79.3763897 L27.7260494,79.4717548 L28.083742,79.6406871 L29.4539797,80.2673715 L29.7428853,80.395433 C30.2718149,80.6236099 30.8047681,80.8425294 31.3414959,81.0520893 L31.7267033,81.2046733 L33.2345151,81.7577904 L33.4271188,81.8231836 C33.9838452,82.0130091 34.5433742,82.1946765 35.1055224,82.3681265 L35.5127417,82.488014 C36.0630379,82.659671 36.6573579,82.869474 37.2461749,82.9730132 C74.9249606,89.7766259 85.8648505,60.5486109 85.8648505,60.5486109 C76.6749027,72.4065694 60.3586183,75.534542 44.8677783,72.0523565 C44.2817127,71.9215702 43.7121561,71.741739 43.1425995,71.5728067 L42.7133684,71.4447451 C42.1563611,71.2751946 41.6023156,71.0962456 41.0514736,70.9079763 L40.8231007,70.8262349 C40.3327381,70.6538876 39.8447636,70.4749482 39.3593126,70.2894661 L38.9465904,70.1259832 C38.4147549,69.9187622 37.8872763,69.7007389 37.3644886,69.4720517 L37.0480683,69.3358159 L35.7135998,68.7200304 L35.3283924,68.5374745 C34.9817058,68.3739916 34.6405221,68.1914357 34.2965869,67.9925316 L33.6087166,67.6383186 C33.1904914,67.4203415 32.7832722,67.186016 32.37055,66.9516905 L31.9523248,66.7200898 C31.4106444,66.4033345 30.8740389,66.0781448 30.3427082,65.7446419 C30.1968797,65.6520016 30.0538027,65.5539119 29.9079742,65.4585469 L28.7633579,64.7038009 C28.6367898,64.6220594 28.4882098,64.5294191 28.3946594,64.4476777 L27.3105758,63.671134 L26.8290665,63.3114716 L25.8522906,62.5540009 L25.4175566,62.2079622 L24.2014018,61.1916436 C24.1571756,61.1533389 24.1112734,61.1169744 24.0638278,61.082655 L22.7843889,59.9301007 L22.4266963,59.5867866 L21.5132045,58.6876307 L21.155512,58.3334178 C20.7703046,57.9437836 20.3961031,57.5514247 20.0549194,57.1508916 C20.035659,57.1318186 20.0163987,57.1127456 19.9998898,57.0909479 C19.6103099,56.6674972 19.2287054,56.236918 18.8552735,55.7994331 L18.5801254,55.4452202 L17.754681,54.4370757 L17.4795329,54.0637898 L16.5275203,52.810421 C7.89337183,41.224934 4.80620975,25.2090608 11.6684042,12.0759357 M29.7731516,10.372989 C24.1381177,18.4027233 24.4435322,29.1735207 28.8376479,37.6419341 C29.5739581,39.0692162 30.4068019,40.4456065 31.33049,41.7617028 C32.1751948,42.9605773 33.1106984,44.3856031 34.2305514,45.3474274 C34.6377706,45.7915559 35.0614987,46.2193361 35.4962328,46.6471163 L35.8264105,46.9740821 C36.2469485,47.3801893 36.6772194,47.7762941 37.1168553,48.1620577 C37.1361157,48.1756813 37.1498731,48.1947543 37.1718849,48.2083779 C37.6726545,48.6443322 38.1789271,49.0257923 38.6934541,49.4562972 L39.0346378,49.7205945 C39.5508495,50.114845 40.0774831,50.4955294 40.6139881,50.86225 L40.6607633,50.8949466 C40.8973907,51.0584295 41.139521,51.2082888 41.3816514,51.3663222 C41.4972136,51.4398895 41.6072729,51.5189063 41.7228351,51.5897488 C42.1074797,51.8341256 42.4973621,52.0703216 42.8922147,52.2981747 L43.0573035,52.3935397 L44.0918605,52.9384826 C44.2129257,53.0066005 44.3670087,53.0638195 44.460559,53.1292127 L45.1841986,53.4997739 C45.2199679,53.5188469 45.2584886,53.5324704 45.2942579,53.5488187 C45.7905668,53.793587 46.2933477,54.0252693 46.8020697,54.243621 L47.1322474,54.3798567 C47.542078,54.5521498 47.9548608,54.7174734 48.370414,54.8757548 L48.8986985,55.0664848 C49.2754535,55.2021039 49.6542852,55.3319972 50.0350603,55.4561191 L50.5495873,55.6196019 C51.0916291,55.7830848 51.6501798,56.001062 52.1922216,56.0909776 C81.283634,60.8646778 88,38.6528033 88,38.6528033 C81.946741,47.290149 70.2254304,51.4044682 57.7116932,48.1893048 C57.1586045,48.0451899 56.6090688,47.8880199 56.0635559,47.7179292 C55.898467,47.6688843 55.7333781,47.61439 55.5682893,47.5598957 L54.4126671,47.1675368 L53.8623708,46.9768068 C53.4469886,46.8180965 53.034213,46.6527757 52.6242042,46.4809087 L52.2885235,46.344673 C51.7766459,46.1243244 51.2702252,45.8917474 50.7697058,45.647146 L50.0075454,45.2656859 L49.5673084,45.0422593 C49.2435637,44.8681979 48.9225202,44.6892541 48.60429,44.5054905 L48.3731655,44.3774289 C47.9795228,44.1490724 47.5905678,43.9128825 47.2065374,43.6690031 C47.0882237,43.5954358 46.9726615,43.5136944 46.8543478,43.4374023 L46.0976904,42.9415043 C45.5647668,42.5757498 45.041799,42.195971 44.5293461,41.8025735 L44.1716535,41.530102 C38.6686908,37.2468505 34.354368,31.3941632 32.290757,24.7622075 C30.1280927,17.8823028 30.593093,10.1577365 34.3406106,3.89089265 M50.1121017,3.39226985 C46.7938152,8.25588565 46.4636375,14.2448086 48.7693788,19.590699 C51.1989369,25.2662798 56.1791181,29.7157389 61.9929982,31.8519153 L62.7138863,32.1243868 L63.0330582,32.2224765 L64.0703667,32.494948 C80.1335148,35.5684262 84.4863583,24.3317026 85.6502349,22.6778008 C81.8339303,28.1190561 75.4202272,29.4241945 67.5509906,27.5332424 C66.9291558,27.3833831 66.2467884,27.1599565 65.6469655,26.9501535 C64.8771208,26.6799526 64.1221707,26.3698144 63.3852478,26.0210257 C61.9866486,25.3549318 60.6584734,24.5526356 59.4203632,23.6260015 C52.3793224,18.3373302 48.004467,8.21773965 52.5994409,0" id="Shape"></path>
        </g>
    </g>
</svg>