<?xml version="1.0" encoding="UTF-8"?>
<svg width="89px" height="89px" viewBox="0 0 89 89" version="1.1" xmlns="http://www.w3.org/2000/svg" xmlns:xlink="http://www.w3.org/1999/xlink">
    <!-- Generator: Sketch 58 (84663) - https://sketch.com -->
    <title>Custom Preset 17</title>
    <desc>Created with Sketch.</desc>
    <g id="Custom-Preset-17" stroke="none" stroke-width="1" fill="none" fill-rule="evenodd">
        <g id="javascript-logo" transform="translate(5.000000, 0.000000)">
            <path d="M7.24024961,80.0205903 L0,0 L78,0.03054221 L70.8205928,79.9595058 L38.9391576,89 L7.24024961,80.0205903 Z M64.949298,75.6530542 L71.0031201,7.11633493 L39.0608424,7.11633493 L39.3042122,82.7083047 L64.949298,75.6530542 L64.949298,75.6530542 Z M36.0795632,17.164722 L28.3221529,17.164722 L28.2308892,58.1829101 L13.1723869,54.0597117 L13.2028081,63.4361702 L36.0795632,69.6362388 L36.0795632,17.164722 Z" id="path5113" fill="#D4B830" fill-rule="nonzero"></path>
            <path d="M33.6576819,69.4401408 C32.6792453,69.129108 27.8463612,67.7605634 22.9245283,66.3609155 L14,63.8415493 L14,59.1449531 C14,54.5416667 14,54.4483568 14.4447439,54.6038732 C14.6819407,54.6971831 17.9433962,55.6302817 21.6792453,56.7188967 L28.4690027,58.6784038 L28.5283019,37.8392019 L28.5876011,17 L36,17 L36,43.5 C36,64.5569249 35.9407008,70 35.7331536,70 C35.5849057,69.9688967 34.6361186,69.7200704 33.6576819,69.4401408 L33.6576819,69.4401408 Z" id="path5159" fill="#FFFFFF" fill-rule="nonzero" opacity="0.986"></path>
            <path d="M13.0305445,63.7338381 L13,54.2574257 C13,54.2574257 22.6520584,57.0046593 28.1195219,58.4245778 L28.2111554,17 L36,17 L36,70 L13.0305445,63.7338381 Z" id="path5157" fill-opacity="0.9216" fill="#FFFFFF" fill-rule="nonzero" opacity="0.986"></path>
            <polygon id="Rectangle" fill="#D4B830" points="39 6 71.0031201 6 69 79 37.6365542 84.2400015"></polygon>
            <polygon id="path5117-path" fill="#FFFFFF" fill-rule="nonzero" points="63.2927139 64.4470314 65.3938101 38.5640279 49.8639684 40.322468 49.8639684 26.5017462 66.4291329 26.4400466 67.0990476 17 42.0990476 17.1233993 42.434005 51.4901048 57.5375373 48.8678696 57.3243826 56.5186263 42.0990476 60.6216531 42.251301 70"></polygon>
        </g>
    </g>
</svg>