<?xml version="1.0" encoding="UTF-8"?>
<svg width="89px" height="89px" viewBox="0 0 89 89" version="1.1" xmlns="http://www.w3.org/2000/svg" xmlns:xlink="http://www.w3.org/1999/xlink">
    <!-- Generator: Sketch 58 (84663) - https://sketch.com -->
    <title>Custom Preset 17</title>
    <desc>Created with Sketch.</desc>
    <g id="Custom-Preset-17" stroke="none" stroke-width="1" fill="none" fill-rule="evenodd">
        <g id="Sass_Logo_Color" transform="translate(0.000000, 11.000000)" fill="#CD6799" fill-rule="nonzero">
            <path d="M76.6359704,38.5156823 C73.531037,38.5320007 70.8325084,39.2826462 68.5728972,40.3922961 C67.7438312,38.7441397 66.9147652,37.2754854 66.7684594,36.1984723 C66.6058975,34.941957 66.4108231,34.1749931 66.6058975,32.6737021 C66.8009718,31.1724111 67.6788064,29.0347032 67.6625502,28.8715194 C67.646294,28.7083356 67.4674759,27.9413717 65.6792943,27.9250533 C63.8911127,27.908735 62.3467741,28.2677393 62.1679559,28.7409724 C61.9891378,29.2142054 61.6477577,30.2912185 61.4201709,31.4008684 C61.1113032,33.0327065 57.8438078,38.8583683 55.9743452,41.9099055 C55.372866,40.7186637 54.8526677,39.6742874 54.7388743,38.8420499 C54.5763124,37.5855346 54.381238,36.8185708 54.5763124,35.3172797 C54.7713867,33.8159887 55.6492213,31.6782809 55.6329651,31.5150971 C55.6167089,31.3519133 55.4378908,30.5849494 53.6497092,30.568631 C51.8615276,30.5523126 50.317189,30.911317 50.1383709,31.38455 C49.9595527,31.8577831 49.7644784,32.9674329 49.3905859,34.0444461 C49.0166933,35.1214592 44.676289,44.847214 43.5383553,47.3602446 C42.9531322,48.6493967 42.4491901,49.6774547 42.0915538,50.379145 C42.0915538,50.379145 42.0915538,50.379145 42.0915538,50.379145 C42.0915538,50.379145 42.0752976,50.4281002 42.026529,50.5096921 C41.7176613,51.1134721 41.5388432,51.4398398 41.5388432,51.4398398 C41.5388432,51.4398398 41.5388432,51.4398398 41.5388432,51.4561581 C41.2950002,51.8967544 41.0349011,52.3047139 40.9048515,52.3047139 C40.8073143,52.3047139 40.6284962,51.1297905 40.9373639,49.5305892 C41.5876117,46.1526844 43.1319504,40.8981659 43.1156942,40.7186637 C43.1156942,40.6207534 43.4083057,39.7069241 42.10781,39.2336911 C40.8398267,38.760458 40.3846532,39.5437403 40.2708599,39.5437403 C40.1570665,39.5437403 40.0757855,39.8211528 40.0757855,39.8211528 C40.0757855,39.8211528 41.4900746,33.913899 37.377257,33.913899 C34.808778,33.913899 31.2649273,36.7369789 29.5092581,39.2826462 C28.4038368,39.8864263 26.0466883,41.1755784 23.5269779,42.5626407 C22.5678624,43.1011473 21.5762344,43.6396538 20.6496312,44.1455236 C20.5846065,44.0802501 20.5195817,43.9986582 20.4545569,43.9333847 C15.4801609,38.5972742 6.27915393,34.8277283 6.66930264,27.6639592 C6.8156084,25.0530184 7.70969918,18.1992985 24.3397877,9.87692441 C38.0275048,3.10479646 48.9191562,4.98141023 50.8048749,9.14259728 C53.5034035,15.0824878 44.9689005,26.1137131 30.82601,27.7129144 C25.4289529,28.3166945 22.6003748,26.2279418 21.8851021,25.4446595 C21.1373171,24.6287405 21.0235237,24.5797853 20.7471684,24.7429691 C20.2919949,24.9877448 20.5846065,25.722072 20.7471684,26.1463498 C21.1698295,27.2559997 22.9092425,29.2142054 25.851614,30.1769899 C28.4526053,31.0255456 34.7762656,31.4987787 42.4329339,28.5288334 C50.9999493,25.1998838 57.697502,15.947362 55.7305023,8.19613121 C53.7635026,0.330671763 40.7585457,-2.26395075 28.4526053,2.12569363 C21.1373171,4.73663452 13.2042934,8.84886643 7.49836864,14.2012953 C0.719534883,20.5654637 -0.353374056,26.0973947 0.0855432374,28.4146048 C1.66239425,36.6390686 12.9604505,41.9914974 17.479673,45.9568639 C17.2520863,46.0874109 17.0407557,46.2016396 16.8619376,46.2995499 C14.6023263,47.4255181 5.9865424,51.9457096 3.84072452,56.7269951 C1.40229512,62.1446974 4.23087323,66.028472 6.10033578,66.5506602 C11.9037978,68.1661799 17.8698217,65.2615081 21.0722923,60.4639042 C24.274763,55.6663003 23.8846143,49.4326789 22.4053004,46.5769623 C22.3890442,46.5443256 22.372788,46.5116888 22.3402756,46.4790521 C22.9254987,46.1363661 23.5269779,45.7773617 24.112201,45.4346757 C25.2663909,44.7493037 26.4043246,44.1128869 27.3796964,43.5906987 C26.8269857,45.1083081 26.4205808,46.9196483 26.2255065,49.5305892 C25.9816635,52.5984448 27.2333906,56.5801296 28.8752664,58.1466942 C29.6067953,58.8320662 30.4683737,58.8483845 31.0210843,58.8483845 C32.9393154,58.8483845 33.8008938,57.2491832 34.7600094,55.3562511 C35.9304555,53.0390411 36.9871083,50.3465083 36.9871083,50.3465083 C36.9871083,50.3465083 35.6703564,57.624506 39.2467195,57.624506 C40.5472152,57.624506 41.8639671,55.9273944 42.4491901,55.0625202 C42.4491901,55.0788386 42.4491901,55.0788386 42.4491901,55.0788386 C42.4491901,55.0788386 42.4817025,55.0298835 42.5467273,54.9156548 C42.6767769,54.7035159 42.7580579,54.5729688 42.7580579,54.5729688 C42.7580579,54.5729688 42.7580579,54.5566505 42.7580579,54.5403321 C43.2782561,53.6265028 44.4487023,51.5540684 46.1881152,48.1108901 C48.4314703,43.6722906 50.5935444,38.1240412 50.5935444,38.1240412 C50.5935444,38.1240412 50.7886187,39.4784668 51.4551227,41.7304033 C51.8452715,43.0521921 52.6580813,44.504528 53.3083291,45.9079087 C52.7881308,46.6422359 52.4630069,47.0501954 52.4630069,47.0501954 C52.4630069,47.0501954 52.4630069,47.0501954 52.4792631,47.0665138 C52.056602,47.6213387 51.6014285,48.2251188 51.0974864,48.8125805 C49.3255611,50.93397 47.2122556,53.3654087 46.9196441,54.067099 C46.5782639,54.8993364 46.6595449,55.5031165 47.3097928,55.9926679 C47.7812224,56.3516723 48.6265446,56.4006275 49.488123,56.3516723 C51.0812302,56.2374437 52.2029078,55.8458025 52.7556184,55.6010268 C53.6171968,55.2909776 54.625081,54.8177445 55.5679403,54.1160542 C57.3073533,52.8269021 58.3640061,50.9829251 58.2664689,48.5514864 C58.2177003,47.2133792 57.778783,45.875272 57.2423285,44.6187567 C57.4048905,44.3902993 57.5511963,44.161842 57.7137582,43.9333847 C60.4610554,39.9027447 62.590617,35.4804635 62.590617,35.4804635 C62.590617,35.4804635 62.7856914,36.8348891 63.4521954,39.0868257 C63.7773194,40.2291123 64.4438234,41.4693092 65.0290464,42.6768694 C62.4443113,44.7819405 60.8512041,47.2296976 60.2822372,48.8288989 C59.2580969,51.7988441 60.0546505,53.1369513 61.5664767,53.4470006 C62.2492369,53.593866 63.2246087,53.2674984 63.9398813,52.9574492 C64.8502283,52.6637183 65.9231372,52.1578485 66.9472776,51.407203 C68.6866906,50.1180509 70.3610788,48.3230291 70.2635416,45.8915904 C70.214773,44.7819405 69.9221615,43.688609 69.5157566,42.6279142 C71.710343,41.7140849 74.5389211,41.2082151 78.1477967,41.632493 C85.885746,42.5463223 87.4138284,47.3928814 87.1212169,49.4326789 C86.8286053,51.4724765 85.2029857,52.5821264 84.6665313,52.9248124 C84.1300768,53.2674984 83.9512586,53.381727 84.0000272,53.6265028 C84.065052,53.9855071 84.3251512,53.9691887 84.7803246,53.9039152 C85.4143163,53.7896866 88.8443737,52.2557588 88.9906794,48.5025313 C89.2345224,43.7049274 84.6827875,38.4667272 76.6359704,38.5156823 Z M16.9432185,58.7178375 C14.3747396,61.524599 10.7983764,62.5852937 9.25403781,61.6877828 C7.59590581,60.7249983 8.24615365,56.5801296 11.3998557,53.6101844 C13.3180868,51.7988441 15.7890286,50.1180509 17.4309044,49.089993 C17.8047969,48.8615356 18.3575076,48.535168 19.0240116,48.1272085 C19.137805,48.061935 19.2028298,48.0292982 19.2028298,48.0292982 L19.2028298,48.0292982 C19.3328794,47.9477063 19.4629289,47.8661144 19.5929785,47.7845225 C20.7471684,52.0273015 19.6417471,55.7642106 16.9432185,58.7178375 Z M35.637844,45.9568639 C34.7437532,48.1435269 32.8742907,53.7407314 31.7363569,53.4306822 C30.7609852,53.1695881 30.1595059,48.9268091 31.5412826,44.7329853 C32.240299,42.6279142 33.7196129,40.1148836 34.5811913,39.1357808 C35.9792241,37.5692163 37.5235627,37.0470281 37.8974552,37.6834449 C38.3688849,38.5156823 36.1905547,44.5861199 35.637844,45.9568639 Z M51.064974,53.3654087 C50.6910815,53.5612292 50.3334452,53.6917763 50.1708833,53.593866 C50.0570899,53.5285925 50.3334452,53.2674984 50.3334452,53.2674984 C50.3334452,53.2674984 52.2679326,51.1787457 53.0319738,50.2322796 C53.4708911,49.6774547 53.9910893,49.0247194 54.5438,48.2903923 C54.5438,48.3556658 54.5438,48.4372577 54.5438,48.5025313 C54.5438,50.9992435 52.137883,52.6800367 51.064974,53.3654087 Z M62.9645096,50.6402391 C62.6881542,50.4444185 62.7369228,49.7916833 63.663526,47.7518857 C64.0211623,46.9522851 64.8664845,45.6141779 66.3132859,44.3250258 C66.4758479,44.847214 66.5896413,45.3530838 66.5733851,45.8263168 C66.5571289,48.9757643 64.3137738,50.1506877 62.9645096,50.6402391 Z" id="Shape"></path>
        </g>
    </g>
</svg>