<?xml version="1.0" encoding="UTF-8"?>
<svg width="1440px" height="4548px" viewBox="0 0 1440 4548" version="1.1" xmlns="http://www.w3.org/2000/svg" xmlns:xlink="http://www.w3.org/1999/xlink">
    <!-- Generator: Sketch 58 (84663) - https://sketch.com -->
    <title>7 Bg shapes</title>
    <desc>Created with Sketch.</desc>
    <defs>
        <radialGradient cx="79.9832589%" cy="-8.5384621%" fx="79.9832589%" fy="-8.5384621%" r="90.7326875%" gradientTransform="translate(0.799833,-0.085385),scale(1.000000,0.821306),rotate(133.477357),translate(-0.799833,0.085385)" id="radialGradient-1">
            <stop stop-color="#F7F7F7" offset="0%"></stop>
            <stop stop-color="#C3DEA5" offset="22.6956949%"></stop>
            <stop stop-color="#9EC872" offset="68.133274%"></stop>
            <stop stop-color="#7CB342" offset="100%"></stop>
        </radialGradient>
        <radialGradient cx="62.3511477%" cy="51.7440401%" fx="62.3511477%" fy="51.7440401%" r="56.3673487%" gradientTransform="translate(0.623511,0.517440),scale(1.000000,0.727903),rotate(-85.987430),translate(-0.623511,-0.517440)" id="radialGradient-2">
            <stop stop-color="#43A047" offset="0%"></stop>
            <stop stop-color="#53AA57" offset="20.1703648%"></stop>
            <stop stop-color="#81C784" offset="100%"></stop>
        </radialGradient>
        <path d="M495.025613,221.900081 C585.074922,214.718259 531.217345,317.544146 581.301169,374.978108 C614.690385,413.267416 583.686508,466.68852 488.289536,535.241421 C555.890129,571.941278 589.690425,597.079263 589.690425,610.655375 C589.690425,631.019544 564.97439,684.439524 475.698571,684.439524 C416.181359,684.439524 400.943036,665.261653 429.983603,626.905912 C427.317269,537.283558 416.933057,482.048184 398.830968,461.199793 C383.795496,443.883261 -36.3963458,110.049639 244.508868,75.5573428 C525.414082,41.0650461 404.976304,229.081903 495.025613,221.900081 Z" id="path-3"></path>
        <path d="M1981.90371,2683.82037 L1981.90371,1117.71875 C1937.29954,847.354167 1817.94537,712.171875 1623.84121,712.171875 C1332.68496,712.171875 1429.09902,884.960937 1202.45185,862.601562 C975.804687,840.242187 980.225359,689.543428 835.067771,566.578125 C738.296045,484.601256 600.940122,441.075215 423,436 L423,4246.57813 L1981.90371,4246.57813 L1981.90371,2683.82037 Z" id="path-5"></path>
        <filter x="-8.5%" y="-3.9%" width="116.9%" height="106.9%" filterUnits="objectBoundingBox" id="filter-6">
            <feMorphology radius="15" operator="dilate" in="SourceAlpha" result="shadowSpreadOuter1"></feMorphology>
            <feOffset dx="0" dy="-18" in="shadowSpreadOuter1" result="shadowOffsetOuter1"></feOffset>
            <feGaussianBlur stdDeviation="26" in="shadowOffsetOuter1" result="shadowBlurOuter1"></feGaussianBlur>
            <feColorMatrix values="0 0 0 0 0.960784314   0 0 0 0 0.960784314   0 0 0 0 0.960784314  0 0 0 0.584663723 0" type="matrix" in="shadowBlurOuter1"></feColorMatrix>
        </filter>
        <radialGradient cx="62.3511477%" cy="51.7440401%" fx="62.3511477%" fy="51.7440401%" r="57.2852634%" gradientTransform="translate(0.623511,0.517440),scale(1.000000,0.716183),rotate(-86.051828),translate(-0.623511,-0.517440)" id="radialGradient-7">
            <stop stop-color="#43A047" offset="0%"></stop>
            <stop stop-color="#53AA57" offset="20.1703648%"></stop>
            <stop stop-color="#81C784" offset="100%"></stop>
        </radialGradient>
        <path d="M1517.77175,1368.24864 C1597.26134,1361.80526 1549.71942,1454.0585 1593.93012,1505.58705 C1623.40392,1539.93942 1596.03574,1587.86772 1511.82558,1649.37195 C1571.49893,1682.2983 1601.3356,1704.85157 1601.3356,1717.03178 C1601.3356,1735.30209 1579.51791,1783.22938 1500.71111,1783.22938 C1448.17324,1783.22938 1434.72185,1766.02339 1460.35695,1731.61142 C1458.00328,1651.20411 1448.83679,1601.64809 1432.85746,1582.94335 C1419.58513,1567.40732 1048.66748,1267.89876 1296.63208,1236.95299 C1544.59668,1206.00722 1438.28215,1374.69202 1517.77175,1368.24864 Z" id="path-8"></path>
    </defs>
    <g id="001" stroke="none" stroke-width="1" fill="none" fill-rule="evenodd">
        <g id="Desktop-HD-1440" transform="translate(0.000000, -556.000000)">
            <g id="7-Bg-shapes" transform="translate(-517.000000, 460.000000)">
                <g id="Group-4" transform="translate(0.810494, 0.243561)">
                    <path d="M655.901505,508.231171 C641.056919,546.531571 618.460347,589.750957 584.07594,629.347315 L583.030376,630.546087 L523.221464,636.717264 C523.221464,636.717264 544.307694,652.314505 554.646115,659.452318 C516.813171,693.868919 467.97041,723.212047 404.979186,740.677025 C416.51848,724.582813 500.961654,607.041002 557.533668,533.647683 C562.217071,531.648877 582.326228,523.369669 608.363328,516.728827 C634.935362,509.956916 652.408058,508.471464 655.901505,508.231171 Z M465.164169,575.731655 C465.981561,580.951669 468.471882,596.245876 471.648812,610.005748 C474.711307,623.296037 476.978208,631.164281 477.806499,633.954477 C442.658642,681.901077 411.875659,724.780551 403.189506,736.902342 C407.483539,718.277373 425.918453,645.219007 465.164169,575.731655 Z M678.801952,399.756439 C664.753639,411.574391 614.821052,455.285522 563.628697,520.934135 C539.534969,551.827922 508.831553,593.07607 480.614951,631.506258 C479.529697,627.716212 477.593691,620.578475 475.123239,609.890984 C471.257554,593.16312 468.444835,574.385256 468.378385,573.953083 L468.377213,573.945623 L466.964747,574.16407 C476.502984,557.480223 487.219185,541.036668 499.266049,525.647117 C561.000092,446.793417 655.967991,408.193932 678.801952,399.756439 Z M683.189506,400.117576 C682.107739,410.714461 676.682512,453.84995 656.380254,506.7634 L656.380254,506.7634 L656.314693,505.360309 C656.260058,505.365769 637.514889,506.3321 607.465799,513.986315 C586.573486,519.303866 569.456432,525.675099 560.944344,529.076366 C562.610703,526.925324 564.260671,524.807039 565.866932,522.748809 C620.703789,452.588807 674.043656,407.629845 683.189506,400.117576 Z" id="Combined-Shape" fill="url(#radialGradient-1)"></path>
                    <mask id="mask-4" fill="white">
                        <use xlink:href="#path-3"></use>
                    </mask>
                    <use id="Mask" fill="url(#radialGradient-2)" transform="translate(371.142972, 377.883646) rotate(42.000000) translate(-371.142972, -377.883646) " xlink:href="#path-3"></use>
                </g>
                <g id="Path-4" transform="translate(1202.451854, 2341.289063) scale(-1, 1) translate(-1202.451854, -2341.289063) ">
                    <use fill="black" fill-opacity="1" filter="url(#filter-6)" xlink:href="#path-5"></use>
                    <use fill="#FFFFFF" fill-rule="evenodd" xlink:href="#path-5"></use>
                </g>
                <g id="Path-4" transform="translate(398.000000, 3278.000000)">
                    <path d="M1559,956.226621 C1545.9708,736.648656 1468.02562,626.859674 1325.16444,626.859674 C1053.85963,626.859674 1030.00605,783.014303 818.520739,690.608115 C617.074362,602.588328 698.675634,324.385734 398.632549,271.754914 C383.680125,269.132096 367.779905,267.069475 350.849626,265.618506 C113.074946,245.240586 -3.84283259,156.701084 0.096291774,0 L0.096291774,1365.90625 L1559,1365.90625 L1559,956.226621 Z" fill="#F5F5F5" transform="translate(779.500000, 682.953125) scale(-1, 1) translate(-779.500000, -682.953125) "></path>
                    <mask id="mask-9" fill="white">
                        <use xlink:href="#path-8"></use>
                    </mask>
                    <use id="Mask" fill="url(#radialGradient-7)" transform="translate(1408.416318, 1508.193841) scale(-1, 1) rotate(-42.000000) translate(-1408.416318, -1508.193841) " xlink:href="#path-8"></use>
                </g>
            </g>
        </g>
    </g>
</svg>