<?xml version="1.0" encoding="UTF-8"?>
<svg width="167px" height="594px" viewBox="0 0 167 594" version="1.1" xmlns="http://www.w3.org/2000/svg" xmlns:xlink="http://www.w3.org/1999/xlink">
    <!-- Generator: Sketch 58 (84663) - https://sketch.com -->
    <title>Group 4</title>
    <desc>Created with Sketch.</desc>
    <defs>
        <radialGradient cx="79.9832589%" cy="-8.5384621%" fx="79.9832589%" fy="-8.5384621%" r="90.7326875%" gradientTransform="translate(0.799833,-0.085385),scale(1.000000,0.821306),rotate(133.477357),translate(-0.799833,0.085385)" id="radialGradient-1">
            <stop stop-color="#F7F7F7" offset="0%"></stop>
            <stop stop-color="#C3DEA5" offset="22.6956949%"></stop>
            <stop stop-color="#9EC872" offset="68.133274%"></stop>
            <stop stop-color="#7CB342" offset="100%"></stop>
        </radialGradient>
        <radialGradient cx="62.3511477%" cy="51.7440401%" fx="62.3511477%" fy="51.7440401%" r="56.3673487%" gradientTransform="translate(0.623511,0.517440),scale(1.000000,0.727903),rotate(-85.987430),translate(-0.623511,-0.517440)" id="radialGradient-2">
            <stop stop-color="#43A047" offset="0%"></stop>
            <stop stop-color="#53AA57" offset="20.1703648%"></stop>
            <stop stop-color="#81C784" offset="100%"></stop>
        </radialGradient>
        <path d="M495.025613,221.900081 C585.074922,214.718259 531.217345,317.544146 581.301169,374.978108 C614.690385,413.267416 583.686508,466.68852 488.289536,535.241421 C555.890129,571.941278 589.690425,597.079263 589.690425,610.655375 C589.690425,631.019544 564.97439,684.439524 475.698571,684.439524 C416.181359,684.439524 400.943036,665.261653 429.983603,626.905912 C427.317269,537.283558 416.933057,482.048184 398.830968,461.199793 C383.795496,443.883261 -36.3963458,110.049639 244.508868,75.5573428 C525.414082,41.0650461 404.976304,229.081903 495.025613,221.900081 Z" id="path-3"></path>
        <radialGradient cx="50%" cy="67.103304%" fx="50%" fy="67.103304%" r="68.6928641%" gradientTransform="translate(0.500000,0.671033),scale(1.000000,0.747371),rotate(-15.001971),translate(-0.500000,-0.671033)" id="radialGradient-5">
            <stop stop-color="#43A047" offset="0%"></stop>
            <stop stop-color="#6CBA6F" stop-opacity="0.461366742" offset="75.5627728%"></stop>
            <stop stop-color="#5CB060" stop-opacity="0.805207919" offset="100%"></stop>
            <stop stop-color="#81C784" stop-opacity="0" offset="100%"></stop>
        </radialGradient>
    </defs>
    <g id="001" stroke="none" stroke-width="1" fill="none" fill-rule="evenodd">
        <g id="Desktop-HD-1440" transform="translate(0.000000, -556.000000)">
            <g id="7-Bg-shapes" transform="translate(-517.000000, 460.000000)">
                <g id="Group-4" transform="translate(0.810494, 0.243561)">
                    <path d="M655.901505,508.231171 C641.056919,546.531571 618.460347,589.750957 584.07594,629.347315 L583.030376,630.546087 L523.221464,636.717264 C523.221464,636.717264 544.307694,652.314505 554.646115,659.452318 C516.813171,693.868919 467.97041,723.212047 404.979186,740.677025 C416.51848,724.582813 500.961654,607.041002 557.533668,533.647683 C562.217071,531.648877 582.326228,523.369669 608.363328,516.728827 C634.935362,509.956916 652.408058,508.471464 655.901505,508.231171 Z M465.164169,575.731655 C465.981561,580.951669 468.471882,596.245876 471.648812,610.005748 C474.711307,623.296037 476.978208,631.164281 477.806499,633.954477 C442.658642,681.901077 411.875659,724.780551 403.189506,736.902342 C407.483539,718.277373 425.918453,645.219007 465.164169,575.731655 Z M678.801952,399.756439 C664.753639,411.574391 614.821052,455.285522 563.628697,520.934135 C539.534969,551.827922 508.831553,593.07607 480.614951,631.506258 C479.529697,627.716212 477.593691,620.578475 475.123239,609.890984 C471.257554,593.16312 468.444835,574.385256 468.378385,573.953083 L468.377213,573.945623 L466.964747,574.16407 C476.502984,557.480223 487.219185,541.036668 499.266049,525.647117 C561.000092,446.793417 655.967991,408.193932 678.801952,399.756439 Z M683.189506,400.117576 C682.107739,410.714461 676.682512,453.84995 656.380254,506.7634 L656.380254,506.7634 L656.314693,505.360309 C656.260058,505.365769 637.514889,506.3321 607.465799,513.986315 C586.573486,519.303866 569.456432,525.675099 560.944344,529.076366 C562.610703,526.925324 564.260671,524.807039 565.866932,522.748809 C620.703789,452.588807 674.043656,407.629845 683.189506,400.117576 Z" id="Combined-Shape" fill="url(#radialGradient-1)"></path>
                    <mask id="mask-4" fill="white">
                        <use xlink:href="#path-3"></use>
                    </mask>
                    <use id="Mask" fill="url(#radialGradient-2)" transform="translate(371.142972, 377.883646) rotate(42.000000) translate(-371.142972, -377.883646) " xlink:href="#path-3"></use>
                    <path d="M724.791758,473.601605 C652.409677,569.294754 532.185786,628.927718 550.678502,441.467102 C569.171219,254.006485 465.507078,280.634329 440.175209,176.56308 C414.843341,72.4918309 278.194132,127.599556 459.42974,67.5459831 C640.665348,7.49241016 797.173839,377.908456 724.791758,473.601605 Z" id="Path-3" fill="url(#radialGradient-5)" opacity="0.616796875" mask="url(#mask-4)" transform="translate(554.915285, 312.482217) rotate(45.000000) translate(-554.915285, -312.482217) "></path>
                </g>
            </g>
        </g>
    </g>
</svg>