<?xml version="1.0" encoding="UTF-8"?>
<svg width="77px" height="58px" viewBox="0 0 77 58" version="1.1" xmlns="http://www.w3.org/2000/svg" xmlns:xlink="http://www.w3.org/1999/xlink">
    <!-- Generator: Sketch 58 (84663) - https://sketch.com -->
    <title>Icon3</title>
    <desc>Created with Sketch.</desc>
    <g id="001" stroke="none" stroke-width="1" fill="none" fill-rule="evenodd">
        <g id="Desktop-HD-1440" transform="translate(-967.000000, -1084.000000)">
            <g id="6-Footer" transform="translate(192.000000, 1085.000000)">
                <g id="Icon3" transform="translate(776.000000, 0.000000)">
                    <g id="Group-33">
                        <polygon id="Fill-1" fill="#66BB6A" points="53.556 46 56 46 56 11.777 53.556 11.777"></polygon>
                        <g id="Group-32">
                            <path d="M74.2617,6.0527 L62.8437,6.0527 C58.0327,6.0527 54.1307,9.9527 54.1307,14.7657 L54.1307,18.1307 L54.1977,18.1307 C54.5407,13.6327 58.2587,10.0777 62.8437,10.0777 L74.1947,10.0777 C74.2117,9.8567 74.2617,9.6437 74.2617,9.4167 L74.2617,6.0527 Z" id="Fill-2" fill="#66BB6A"></path>
                            <path d="M74.2617,6.0527 L62.8437,6.0527 C58.0327,6.0527 54.1307,9.9527 54.1307,14.7657 L54.1307,18.1307 L54.1977,18.1307 C54.5407,13.6327 58.2587,10.0777 62.8437,10.0777 L74.1947,10.0777 C74.2117,9.8567 74.2617,9.6437 74.2617,9.4167 L74.2617,6.0527 Z" id="Stroke-4" stroke="#FFFFFF" stroke-width="2" stroke-linecap="round" stroke-linejoin="round"></path>
                            <path d="M54.1973,18.1309 L65.5483,18.1309 C70.1343,18.1309 73.8503,14.5759 74.1943,10.0779 L62.8433,10.0779 C58.2593,10.0779 54.5413,13.6329 54.1973,18.1309" id="Fill-6" fill="#66BB6A"></path>
                            <path d="M54.1973,18.1309 L65.5483,18.1309 C70.1343,18.1309 73.8503,14.5759 74.1943,10.0779 L62.8433,10.0779 C58.2593,10.0779 54.5413,13.6329 54.1973,18.1309 Z" id="Stroke-8" stroke="#FFFFFF" stroke-width="2" stroke-linecap="round" stroke-linejoin="round"></path>
                            <path d="M54.1309,12.0781 L42.7139,12.0781 C37.9019,12.0781 33.9999,8.1771 33.9999,3.3651 L33.9999,0.0001 L34.0669,0.0001 C34.4099,4.4981 38.1279,8.0531 42.7139,8.0531 L54.0639,8.0531 C54.0809,8.2741 54.1309,8.4871 54.1309,8.7141 L54.1309,12.0781 Z" id="Fill-10" fill="#66BB6A"></path>
                            <path d="M54.1309,12.0781 L42.7139,12.0781 C37.9019,12.0781 33.9999,8.1771 33.9999,3.3651 L33.9999,0.0001 L34.0669,0.0001 C34.4099,4.4981 38.1279,8.0531 42.7139,8.0531 L54.0639,8.0531 C54.0809,8.2741 54.1309,8.4871 54.1309,8.7141 L54.1309,12.0781 Z" id="Stroke-12" stroke="#FFFFFF" stroke-width="2" stroke-linecap="round" stroke-linejoin="round"></path>
                            <path d="M34.0669,0 L45.4179,0 C50.0029,0 53.7199,3.555 54.0639,8.053 L42.7129,8.053 C38.1279,8.053 34.4099,4.498 34.0669,0" id="Fill-14" fill="#66BB6A"></path>
                            <path d="M34.0669,0 L45.4179,0 C50.0029,0 53.7199,3.555 54.0639,8.053 L42.7129,8.053 C38.1279,8.053 34.4099,4.498 34.0669,0 Z" id="Stroke-16" stroke="#FFFFFF" stroke-width="2" stroke-linecap="round" stroke-linejoin="round"></path>
                            <path d="M56.3633,35.3242 L56.3633,35.3242 C56.3633,32.4452 54.2193,30.0162 51.3633,29.6602 L36.2063,27.7652 L0.0003,56.0002 L28.0003,56.0002 L36.2063,45.4022" id="Fill-18" fill="#66BB6A"></path>
                            <path d="M56.3633,35.3242 L56.3633,35.3242 C56.3633,32.4452 54.2193,30.0162 51.3633,29.6602 L38.3723,28.0362 C36.9863,27.8622 35.5873,28.2482 34.4853,29.1072 L0.0003,56.0002" id="Stroke-22" stroke="#FFFFFF" stroke-width="2" stroke-linecap="round" stroke-linejoin="round"></path>
                            <path d="M65.9766,27.7656 L61.8436,28.2566 C61.3106,28.3206 60.7976,28.4956 60.3386,28.7736 L55.5806,31.6476 L55.5806,37.9996 L59.9996,37.9996 L65.9766,27.7656 Z" id="Fill-24" fill="#66BB6A"></path>
                            <path d="M65.9766,27.7656 L61.8436,28.2566 C61.3106,28.3206 60.7976,28.4956 60.3386,28.7736 L55.5806,31.6476 L55.5806,37.9996 L59.9996,37.9996 L65.9766,27.7656 Z" id="Stroke-26" stroke="#FFFFFF" stroke-width="2" stroke-linecap="round" stroke-linejoin="round"></path>
                            <g id="Group-31" transform="translate(28.000000, 25.000000)">
                                <path d="M15.7651,10.3242 L30.8831,10.3242 L39.5301,1.6762 C40.3851,0.8222 41.6891,0.6102 42.7691,1.1502 L46.0001,2.7652 L30.8831,20.4022 L8.2061,20.4022 L0.0001,31.0002" id="Fill-28" fill="#66BB6A"></path>
                                <path d="M15.7651,10.3242 L30.8831,10.3242 L39.5301,1.6762 C40.3851,0.8222 41.6891,0.6102 42.7691,1.1502 L46.0001,2.7652 L30.8831,20.4022 L8.2061,20.4022 L0.0001,31.0002" id="Stroke-30" stroke="#FFFFFF" stroke-width="2" stroke-linecap="round" stroke-linejoin="round"></path>
                            </g>
                        </g>
                    </g>
                </g>
            </g>
        </g>
    </g>
</svg>