<?xml version="1.0" encoding="UTF-8"?>
<svg width="81px" height="34px" viewBox="0 0 81 34" version="1.1" xmlns="http://www.w3.org/2000/svg" xmlns:xlink="http://www.w3.org/1999/xlink">
    <!-- Generator: Sketch 58 (84663) - https://sketch.com -->
    <title>Group 14</title>
    <desc>Created with Sketch.</desc>
    <g id="001" stroke="none" stroke-width="1" fill="none" fill-rule="evenodd">
        <g id="Desktop-HD-1440" transform="translate(-603.000000, -1096.000000)" stroke="#D1EAD3" stroke-width="2">
            <g id="2-New-Opportunities" transform="translate(192.000000, 796.000000)">
                <g id="2" transform="translate(364.000000, 236.000000)">
                    <g id="Group-14" transform="translate(48.000000, 65.000000)">
                        <path d="M79,0 L79,32 L24,32 L24,0 L79,0 Z" id="Fill-1"></path>
                        <polygon id="Fill-4" points="0 32 40 32 40 24.7741935 0 24.7741935"></polygon>
                        <polygon id="Stroke-5" fill="#66BB6A" points="0 32 40 32 40 24.7741935 0 24.7741935"></polygon>
                        <polygon id="Fill-7" points="8 23.7419355 47 23.7419355 47 16.516129 8 16.516129"></polygon>
                        <polygon id="Stroke-8" fill="#66BB6A" points="8 23.7419355 47 23.7419355 47 16.516129 8 16.516129"></polygon>
                        <polygon id="Fill-9" points="16 15.483871 56 15.483871 56 8.25806452 16 8.25806452"></polygon>
                        <polygon id="Stroke-10" fill="#66BB6A" points="16 15.483871 56 15.483871 56 8.25806452 16 8.25806452"></polygon>
                        <polygon id="Fill-11" points="24 7.22580645 63 7.22580645 63 0 24 0"></polygon>
                        <polygon id="Stroke-12" fill="#66BB6A" points="24 7.22580645 63 7.22580645 63 0 24 0"></polygon>
                    </g>
                </g>
            </g>
        </g>
    </g>
</svg>