<?xml version="1.0" encoding="UTF-8"?>
<svg width="155px" height="108px" viewBox="0 0 155 108" version="1.1" xmlns="http://www.w3.org/2000/svg" xmlns:xlink="http://www.w3.org/1999/xlink">
    <!-- Generator: Sketch 58 (84663) - https://sketch.com -->
    <title>Combined Shape</title>
    <desc>Created with Sketch.</desc>
    <g id="001" stroke="none" stroke-width="1" fill="none" fill-rule="evenodd" fill-opacity="0.248443161">
        <g id="Desktop-HD-1440" transform="translate(-192.000000, -3304.000000)" fill="#66BB6A">
            <g id="5-Testimonials" transform="translate(-158.000000, 3304.000000)">
                <path d="M415.954545,0 C418.439827,-4.56538782e-16 420.454545,2.01471863 420.454545,4.5 L420.454545,80.883182 C420.454545,82.3732411 419.716951,83.7666835 418.484735,84.6044907 L385.212008,107.227263 C383.156786,108.624648 380.357895,108.091366 378.960509,106.036144 C378.453125,105.289901 378.181818,104.408349 378.181818,103.505954 L378.181818,75.1825078 C378.181818,73.6924487 378.919413,72.2990062 380.151628,71.461199 L389.148,65.344 L354.5,65.3445233 C352.014719,65.3445233 350,63.3298047 350,60.8445233 L350,4.5 C350,2.01471863 352.014719,4.56538782e-16 354.5,0 L415.954545,0 Z M500.5,0 C502.985281,-1.3447172e-15 505,2.01471863 505,4.5 L505,65.3445233 L505,80.883182 C505,82.3732411 504.262405,83.7666835 503.03019,84.6044907 L469.757463,107.227263 C467.702241,108.624648 464.903349,108.091366 463.505964,106.036144 C462.998579,105.289901 462.727273,104.408349 462.727273,103.505954 L462.727273,75.1825078 C462.727273,73.6924487 463.464867,72.2990062 464.697083,71.461199 L473.693,65.344 L439.045455,65.3445233 C436.560173,65.3445233 434.545455,63.3298047 434.545455,60.8445233 L434.545455,4.5 C434.545455,2.01471863 436.560173,-4.31639638e-16 439.045455,0 L500.5,0 Z" id="Combined-Shape"></path>
            </g>
        </g>
    </g>
</svg>